<svg width="74" height="74" viewBox="0 0 74 74" fill="none" xmlns="http://www.w3.org/2000/svg">
<path d="M55.4693 0H18.4898C8.27815 0 0 8.27815 0 18.4898V55.4693C0 65.6809 8.27815 73.959 18.4898 73.959H55.4693C65.6809 73.959 73.959 65.6809 73.959 55.4693V18.4898C73.959 8.27815 65.6809 0 55.4693 0Z" fill="#BCE01A"/>
<path d="M34.6707 27.7344C34.6707 25.8197 33.1186 24.2676 31.2039 24.2676C29.2892 24.2676 27.7371 25.8197 27.7371 27.7344V46.2242C27.7371 48.1388 29.2892 49.691 31.2039 49.691C33.1186 49.691 34.6707 48.1388 34.6707 46.2242V27.7344Z" fill="white"/>
<path d="M33.514 27.7343C33.514 26.4579 32.4793 25.4231 31.2028 25.4231C29.9264 25.4231 28.8916 26.4579 28.8916 27.7343V46.2241C28.8916 47.5005 29.9264 48.5353 31.2028 48.5353C32.4793 48.5353 33.514 47.5005 33.514 46.2241V27.7343Z" stroke="white" stroke-width="2.31122"/>
<path d="M46.2264 27.7344C46.2264 25.8197 44.6742 24.2676 42.7596 24.2676C40.8449 24.2676 39.2927 25.8197 39.2927 27.7344V46.2242C39.2927 48.1388 40.8449 49.691 42.7596 49.691C44.6742 49.691 46.2264 48.1388 46.2264 46.2242V27.7344Z" fill="white"/>
<path d="M45.0697 27.7343C45.0697 26.4579 44.0349 25.4231 42.7585 25.4231C41.482 25.4231 40.4473 26.4579 40.4473 27.7343V46.2241C40.4473 47.5005 41.482 48.5353 42.7585 48.5353C44.0349 48.5353 45.0697 47.5005 45.0697 46.2241V27.7343Z" stroke="white" stroke-width="2.31122"/>
</svg>
